<svg width="116.31655587969837" height="258.715625" viewBox="0 0 134.8776934671399 300" class="looka-1j8o68f"><defs id="SvgjsDefs1689"></defs><g id="SvgjsG1690" featurekey="nameFeature-0" transform="matrix(8.699359322238635,0,0,8.699359322238635,6.778016709745032,-69.94282372987774)" fill="#ffff"><path d="M14.08 17.04 c-4.84 2.72 -8.96 9.08 -8.2 16.56 c0.08 0.04 0.2 0.12 0.28 0.16 c1.08 0.48 2.8 -0.64 4.92 -2.2 c0.36 1.2 0.48 2.68 0.32 4.12 c0.44 -0.24 0.84 -0.52 1.24 -0.8 c0.4 1.36 0 5.12 -1.64 6.6 c-1.36 1.2 -4.04 1.48 -5.56 0.24 c-0.2 -0.16 -0.36 -0.32 -0.56 -0.48 c-0.72 -0.16 -1.36 -0.44 -1.96 -0.88 c-4.96 -4 -4.12 -13.56 -2.16 -18.72 c2.44 -6.48 7.44 -12.28 11.24 -13.6 c0.36 0.44 0.8 1.76 1.08 3.24 c0.24 -0.12 0.44 -0.2 0.64 -0.28 c0.36 0.44 1.84 5.2 0.36 6.04 z M12 14.879999999999999 c1.32 -0.76 0.08 -4.8 -0.36 -5.64 c-2.84 1.12 -7.6 6.48 -9.96 12.76 c-1.92 5.16 -2.52 14.04 1.88 17.56 c1.44 1.16 4 0.92 5.32 -0.24 c1.44 -1.32 1.88 -4.6 1.64 -6.12 c-1.4 1 -3.44 2.08 -4.76 1.48 c-1.2 -0.56 -1.92 -1.84 -2.08 -2.96 c-0.8 -7.6 3.36 -14.08 8.32 -16.84 z"></path></g></svg>