<svg width="335.99999999999994" height="135.8443761056743" viewBox="0 0 300 121.2896215229235" class="looka-1j8o68f"><defs id="SvgjsDefs1608"></defs><g id="SvgjsG1609" featurekey="nameFeature-0" transform="matrix(3.5139933819505336,0,0,3.5139933819505336,2.7378919502620374,-28.252496603218372)" fill="#ffffff"><path d="M14.08 17.04 c-4.84 2.72 -8.96 9.08 -8.2 16.56 c0.08 0.04 0.2 0.12 0.28 0.16 c1.08 0.48 2.8 -0.64 4.92 -2.2 c0.36 1.2 0.48 2.68 0.32 4.12 c0.44 -0.24 0.84 -0.52 1.24 -0.8 c0.4 1.36 0 5.12 -1.64 6.6 c-1.36 1.2 -4.04 1.48 -5.56 0.24 c-0.2 -0.16 -0.36 -0.32 -0.56 -0.48 c-0.72 -0.16 -1.36 -0.44 -1.96 -0.88 c-4.96 -4 -4.12 -13.56 -2.16 -18.72 c2.44 -6.48 7.44 -12.28 11.24 -13.6 c0.36 0.44 0.8 1.76 1.08 3.24 c0.24 -0.12 0.44 -0.2 0.64 -0.28 c0.36 0.44 1.84 5.2 0.36 6.04 z M12 14.879999999999999 c1.32 -0.76 0.08 -4.8 -0.36 -5.64 c-2.84 1.12 -7.6 6.48 -9.96 12.76 c-1.92 5.16 -2.52 14.04 1.88 17.56 c1.44 1.16 4 0.92 5.32 -0.24 c1.44 -1.32 1.88 -4.6 1.64 -6.12 c-1.4 1 -3.44 2.08 -4.76 1.48 c-1.2 -0.56 -1.92 -1.84 -2.08 -2.96 c-0.8 -7.6 3.36 -14.08 8.32 -16.84 z M27.84 11.760000000000002 c-1.28 9.48 -2.4 19.6 -1.84 29 c-0.72 1 -4.16 2 -4.44 0.88 c-0.08 -0.28 -0.12 -0.64 -0.12 -1.08 c-1.28 0.16 -2.48 0 -2.64 -0.72 c-0.2 -0.84 -0.24 -2.2 -0.16 -3.64 c-0.16 0.04 -0.32 0.12 -0.48 0.2 c-0.4 0.96 -0.84 3 -0.8 4.56 c-1.28 0.84 -3.56 2.08 -4.32 1.4 c-0.2 -0.16 -0.24 -0.72 -0.16 -1.4 c-1.04 0.32 -1.92 0.4 -2.4 0 c-0.92 -0.8 0 -4.32 0.24 -5.44 c1.2 -5.6 3 -11.8 4.8 -17.28 c0.12 -0.48 0.76 -1 1.16 -1.32 c-0.68 0.24 -1.56 0.56 -3.08 1.16 c0.16 -2.52 1.4 -5.92 2.44 -6.84 c1.8 -1.56 6.88 -2.76 10.68 -2.16 c-0.12 0.88 -0.24 1.72 -0.32 2.56 c0.48 0 1 0.04 1.44 0.12 z M25.6 9.920000000000002 c-2.84 -0.4 -7.44 0.8 -8.88 2.08 c-0.72 0.6 -1.76 3.28 -2 4.56 c0.48 -0.16 3.84 -1.6 3.92 -0.32 c0.04 0.6 -2.04 1.92 -2.2 2.32 c-1.76 5.44 -3.52 11.6 -4.72 17.2 c-0.2 0.76 -0.44 1.8 -0.56 2.72 c-0.12 0.84 -0.24 1.56 0 1.72 c0.72 0.64 2.76 -0.56 4 -1.36 c0 -1.56 0.4 -3.56 0.84 -4.56 c1.08 -0.56 2.44 -0.96 3.88 -0.88 c-0.28 2.48 -0.4 5.08 -0.12 6.2 c0.28 1 3.28 0 4.04 -0.92 c-0.56 -9.32 0.52 -19.32 1.8 -28.76 z M21.119999999999997 17.72 c-0.28 3.52 -0.76 7.52 -1.2 11.04 c-0.76 0.08 -2.12 0.32 -3.08 0.68 c0.8 -3.92 2.16 -8.16 3.72 -11.72 c0.12 -0.28 0.6 -0.36 0.56 0 z M46.12 11.2 c-2.84 5.44 -5.24 22.48 -5.8 28.52 c-0.6 1.48 -2.96 2.64 -4.44 2.28 c-0.12 -0.44 -0.24 -0.88 -0.36 -1.36 c-0.76 0.2 -1.56 0.2 -2.28 0.04 c-0.52 -1.8 -0.96 -3.88 -1.28 -6.04 c-0.24 1.92 -0.4 3.84 -0.32 5.8 c-0.96 1.24 -4.44 2.6 -4.4 1.28 l0 -0.92 c-1.6 0.52 -2.84 0 -2.8 -1.08 c0.16 -9.04 2.24 -18.24 3.96 -27.08 c0.4 -2.08 5.68 -3.92 7.2 -2.48 c-0.08 0.76 -0.12 1.48 -0.16 2.2 c0.64 -0.08 1.12 -0.08 1.32 0.12 c-0.16 1.76 -0.2 3.44 -0.12 5.12 c0.44 -2.56 1 -5.12 1.88 -7.6 c1.48 -1.2 3.84 -1.76 6.84 -1.52 c-0.4 0.8 -0.8 1.72 -1.16 2.8 c0.64 -0.12 1.32 -0.16 1.92 -0.08 z M43.8 9.36 c-1.56 -0.04 -3.44 0.48 -4.44 1.24 c-1.56 4.36 -1.8 9.08 -2.88 13.56 c-0.16 0.52 -0.96 0.8 -1.04 0.24 c-0.76 -4.4 -1.28 -9 -0.88 -13.84 c-0.8 -0.4 -4.92 0.88 -5.2 2.28 c-0.72 3.72 -1.64 8.32 -2.44 13.08 c-0.76 4.72 -1.4 9.6 -1.48 13.8 c0 0.56 0.72 0.4 1.56 0.12 c0.96 -0.32 1.96 -0.92 2.44 -1.48 c-0.2 -4.36 0.84 -8.64 1.44 -12.92 c0.08 -0.72 0.88 -0.96 0.96 -0.16 c0.44 4.4 1.04 10.6 2.2 14.56 c1.4 0.24 3.52 -0.84 4.08 -2.16 c0.56 -5.96 2.88 -22.52 5.68 -28.32 z M60.31999999999999 12.96 c-3.6 8.88 -7.16 20.76 -8.32 29.04 c-0.72 0.64 -5.12 0.2 -6.48 -1.4 c-1.76 -0.44 -3.24 -1.4 -3.2 -3.04 c0.08 -9.48 0 -15.76 1.48 -25.4 c0.8 -1.32 4.2 -3.36 6.28 -1.48 c-0.12 0.56 -0.28 1.24 -0.4 1.96 c0.6 -0.08 1.16 0 1.52 0.32 c-0.36 1.52 -0.76 4.04 -1.12 7 c1.48 -4.96 2.84 -8.68 3.96 -11.52 c1.8 -0.52 5.04 0.6 5.08 2.68 l-0.16 0.4 c0.76 0.36 1.36 0.92 1.36 1.44 z M58.12 10.96 c-0.08 -0.88 -2.16 -1.92 -3.32 -1.68 c-1.76 4.4 -4.32 11.6 -6.92 23.12 c-0.16 0.56 -0.88 0.48 -0.92 -0.72 c-0.04 -6.48 1.16 -16.76 2 -20.64 c-1 -0.72 -3.52 0.44 -4.2 1.48 c-1.44 9.36 -1.36 15.64 -1.44 25.04 c-0.04 2.12 5.48 2.96 6.48 2.32 c1.2 -8.28 4.72 -20.12 8.32 -28.92 z M70.11999999999999 13.879999999999999 c2.28 7.8 0.12 16.84 -2.96 22.96 c-1.04 2.12 -2.64 4.48 -5.32 4.48 c-0.96 0 -1.92 -0.56 -2.56 -1.24 c-1.56 -0.28 -2.88 -1.48 -3.36 -2.68 c-1.8 -4.8 -0.92 -11.44 0.24 -16.4 c0.84 -3.48 2.16 -6.84 4.04 -9.92 c1.04 -1.68 2.84 -2.88 4.84 -2.72 c1.88 0.16 3.4 1.68 3.88 3.32 c0.04 0.12 0.08 0.28 0.12 0.44 c0.52 0.52 0.92 1.12 1.08 1.76 z M67.96 11.920000000000002 c-0.4 -1.24 -1.6 -2.44 -3 -2.56 c-1.52 -0.12 -3.04 0.8 -3.88 2.24 c-1.84 2.96 -3.12 6.24 -3.92 9.64 c-1.2 4.92 -2 11.32 -0.28 15.8 c0.36 1 1.64 2.08 2.96 2.08 c2.52 0 4.08 -2.24 5.16 -4.36 c3.04 -6.12 5.2 -15.08 2.96 -22.84 z M65.19999999999999 22.64 c-0.48 3.84 -2.16 8.72 -3.96 10.72 c-0.44 0.44 -1.36 0.68 -1.52 -0.48 c-0.72 -5.68 0.48 -11.76 3.2 -16.6 c0.32 -0.56 1.32 -1.04 1.76 -0.4 c0.88 1.28 0.8 4.72 0.52 6.76 z M64.39999999999999 19.76 c-1.64 3.36 -2.56 7.2 -2.68 11.08 c1.16 -2.24 2.16 -5.52 2.52 -8.36 c0.08 -0.84 0.16 -1.8 0.16 -2.72 z M84.55999999999999 17.08 c0.24 4.44 -0.76 9.68 -4.2 12.8 c0.48 4.48 0.84 6.24 2.44 10.52 c-0.96 0.96 -3.32 3.04 -4 1.36 c-0.12 -0.32 -0.24 -0.6 -0.36 -0.96 c-1.04 0.36 -1.96 0.28 -2.4 -0.72 c-0.28 -0.76 -0.56 -1.56 -0.76 -2.32 c-0.16 1.68 -0.2 3.28 -0.16 4.44 c-1.64 0.72 -3.92 0.12 -4.2 -1.04 c-1.56 -0.12 -2.92 -0.84 -2.84 -2.32 c0.32 -6.36 1.92 -14.48 3.36 -21.56 c0.12 -0.52 0.48 -0.92 0.84 -1.28 c-0.52 0.16 -1.12 0.44 -2.6 0.84 c0.28 -2.04 0.56 -4.56 1.64 -6.36 c1.04 -1.8 5.08 -2.72 7.64 -2.28 c2.2 0.4 3.28 2.12 3.92 3.92 c1.2 1.2 1.6 3.24 1.68 4.96 z M82.35999999999999 15.120000000000001 c-0.12 -2.52 -0.96 -5.44 -3.6 -5.92 c-2.4 -0.44 -5.84 0.52 -6.6 1.8 c-0.72 1.24 -1.08 3.04 -1.28 4.48 c0.84 -0.32 2.04 -1 2.88 -0.52 c0.96 0.48 -1.2 1.88 -1.32 2.52 c-1.44 7 -3.04 15.08 -3.36 21.4 c-0.04 1 2.08 1.88 3.84 1.2 c-0.12 -3 0.48 -8.36 0.96 -11.4 c0.08 -0.44 0.64 -0.28 0.72 0.16 c0.32 1.68 0.52 3.6 0.92 5.48 c0.36 1.92 0.84 3.84 1.48 5.36 c0.6 1.52 2.64 -0.4 3.56 -1.32 c-1.56 -4.24 -1.92 -6 -2.44 -10.56 c3.48 -3.12 4.48 -8.28 4.24 -12.68 z M78.23999999999998 14.68 c1.72 2.88 0.08 6.92 -1.04 8.64 c-0.4 0.6 -1.64 1.68 -2.52 1.68 c0.6 -4 1 -6.68 1.96 -10.44 c0.68 -0.24 1.32 -0.28 1.6 0.12 z"></path></g></svg>